PathFileType	4	(X/Y/Z) abd_0kg_3.trc																										
DataRate	CameraRate	NumFrames	NumMarkers	Units	OrigDataRate	OrigDataStartFrame	OrigNumFrames																					
100	100	24	9	mm	100	1	787																					
Frame#	Time	gu			centelbow			EpL			centpxt8			centijc7			ij			ts			aa			ai		
		X1	Y1	Z1	X2	Y2	Z2	X3	Y3	Z3	X4	Y4	Z4	X5	Y5	Z5	X6	Y6	Z6	X7	Y7	Z7	X8	Y8	Z8	X9	Y9	Z9  
0	0	-101.304	-3.018	163.779	-129.65	-246.81	191.097	-133.545	-238.839	222.093	-46.816	-153.158	-8.669	-46.816	31.938	-8.669	0	0	0	-130.658	28.246	36.677	-131.252	33.387	155.832	-145.367	-83.868	46.657
1	0.01	-101.458	-3.025	163.613	-129.784	-246.822	190.91	-133.679	-238.854	221.906	-46.816	-153.158	-8.669	-46.816	31.938	-8.669	0	0	0	-130.733	28.219	36.603	-131.336	33.35	155.759	-145.451	-83.895	46.574
2	0.02	-101.659	-3.004	163.46	-129.962	-246.806	190.735	-133.855	-238.841	221.732	-46.816	-153.158	-8.669	-46.816	31.938	-8.669	0	0	0	-130.848	28.175	36.53	-131.461	33.307	155.686	-145.573	-83.938	46.5
3	0.03	-101.722	-3.03	163.405	-130.015	-246.836	190.651	-133.911	-238.875	221.649	-46.816	-153.158	-8.669	-46.816	31.938	-8.669	0	0	0	-130.953	28.186	36.463	-131.577	33.319	155.619	-145.677	-83.928	46.433
4	0.04	-101.635	-3.082	163.405	-129.932	-246.891	190.619	-133.832	-238.934	221.618	-46.816	-153.158	-8.669	-46.816	31.938	-8.669	0	0	0	-130.997	28.298	36.419	-131.631	33.419	155.575	-145.713	-83.818	46.376
5	0.05	-101.566	-3.121	163.365	-129.877	-246.932	190.547	-133.78	-238.979	221.546	-46.816	-153.158	-8.669	-46.816	31.938	-8.669	0	0	0	-130.954	28.425	36.462	-131.61	33.519	155.62	-145.663	-83.694	46.391
6	0.06	-101.588	-3.201	163.288	-129.937	-247.012	190.434	-133.839	-239.062	221.434	-46.816	-153.158	-8.669	-46.816	31.938	-8.669	0	0	0	-130.818	28.424	36.594	-131.505	33.491	155.752	-145.527	-83.698	46.494
7	0.07	-101.663	-3.316	163.233	-130.059	-247.126	190.34	-133.964	-239.18	221.34	-46.816	-153.158	-8.669	-46.816	31.938	-8.669	0	0	0	-130.643	28.307	36.655	-131.355	33.356	155.813	-145.353	-83.817	46.535
8	0.08	-101.764	-3.358	163.199	-130.181	-247.169	190.27	-134.091	-239.227	221.27	-46.816	-153.158	-8.669	-46.816	31.938	-8.669	0	0	0	-130.547	28.228	36.548	-131.272	33.262	155.707	-145.255	-83.897	46.412
9	0.09	-101.877	-3.284	163.158	-130.289	-247.099	190.2	-134.205	-239.16	221.201	-46.816	-153.158	-8.669	-46.816	31.938	-8.669	0	0	0	-130.614	28.245	36.434	-131.355	33.26	155.594	-145.322	-83.882	46.278
10	0.1	-101.98	-3.175	163.132	-130.379	-246.994	190.154	-134.301	-239.057	221.155	-46.816	-153.158	-8.669	-46.816	31.938	-8.669	0	0	0	-130.784	28.275	36.491	-131.561	33.27	155.652	-145.5	-83.852	46.312
11	0.11	-102.044	-3.112	163.139	-130.426	-246.935	190.143	-134.354	-239	221.143	-46.816	-153.158	-8.669	-46.816	31.938	-8.669	0	0	0	-130.908	28.256	36.637	-131.724	33.236	155.798	-145.628	-83.873	46.439
12	0.12	-102.054	-3.124	163.142	-130.431	-246.95	190.123	-134.368	-239.017	221.123	-46.816	-153.158	-8.669	-46.816	31.938	-8.669	0	0	0	-130.919	28.207	36.678	-131.763	33.178	155.84	-145.636	-83.923	46.469
13	0.13	-102.019	-3.171	163.165	-130.429	-246.997	190.114	-134.381	-239.066	221.113	-46.816	-153.158	-8.669	-46.816	31.938	-8.669	0	0	0	-130.869	28.193	36.585	-131.722	33.154	155.747	-145.576	-83.939	46.365
14	0.14	-101.97	-3.181	163.28	-130.429	-247.005	190.194	-134.4	-239.075	221.19	-46.816	-153.158	-8.669	-46.816	31.938	-8.669	0	0	0	-130.811	28.243	36.457	-131.667	33.188	155.619	-145.504	-83.892	46.221
15	0.15	-101.931	-3.181	163.414	-130.428	-247.005	190.293	-134.417	-239.077	221.288	-46.816	-153.158	-8.669	-46.816	31.938	-8.669	0	0	0	-130.769	28.289	36.375	-131.629	33.217	155.538	-145.448	-83.85	46.123
16	0.16	-101.902	-3.244	163.404	-130.421	-247.068	190.247	-134.423	-239.144	221.241	-46.816	-153.158	-8.669	-46.816	31.938	-8.669	0	0	0	-130.746	28.258	36.356	-131.621	33.172	155.52	-145.422	-83.882	46.09
17	0.17	-101.862	-3.349	163.255	-130.403	-247.175	190.064	-134.414	-239.253	221.057	-46.816	-153.158	-8.669	-46.816	31.938	-8.669	0	0	0	-130.737	28.178	36.4	-131.637	33.083	155.564	-145.419	-83.963	46.122
18	0.18	-101.825	-3.442	163.16	-130.412	-247.266	189.934	-134.44	-239.347	220.925	-46.816	-153.158	-8.669	-46.816	31.938	-8.669	0	0	0	-130.73	28.128	36.492	-131.663	33.024	155.656	-145.428	-84.012	46.201
19	0.19	-101.836	-3.5	163.243	-130.506	-247.32	189.974	-134.563	-239.401	220.962	-46.816	-153.158	-8.669	-46.816	31.938	-8.669	0	0	0	-130.711	28.13	36.557	-131.678	33.015	155.721	-145.431	-84.008	46.251
20	0.2	-101.872	-3.54	163.394	-130.643	-247.352	190.079	-134.738	-239.433	221.062	-46.816	-153.158	-8.669	-46.816	31.938	-8.669	0	0	0	-130.655	28.153	36.537	-131.653	33.026	155.701	-145.39	-83.985	46.216
21	0.21	-101.862	-3.6	163.455	-130.731	-247.405	190.102	-134.863	-239.485	221.08	-46.816	-153.158	-8.669	-46.816	31.938	-8.669	0	0	0	-130.56	28.171	36.485	-131.587	33.029	155.649	-145.292	-83.968	46.146
22	0.22	-101.804	-3.642	163.458	-130.752	-247.44	190.086	-134.921	-239.517	221.059	-46.816	-153.158	-8.669	-46.816	31.938	-8.669	0	0	0	-130.462	28.173	36.479	-131.518	33.008	155.644	-145.181	-83.97	46.115
23	0.23	-101.724	-3.603	163.495	-130.728	-247.395	190.117	-134.938	-239.468	221.082	-46.816	-153.158	-8.669	-46.816	31.938	-8.669	0	0	0	-130.377	28.133	36.522	-131.465	32.938	155.688	-145.087	-84.014	46.126
